<svg data-v-1084b650="" xmlns="http://www.w3.org/2000/svg" viewBox="0 0 300 300"><!----> <!----> <rect data-v-1084b650="" fill="#f7806e" x="0" y="0" width="300px" height="300px" class="logo-background-square"></rect> <!----> <g data-v-1084b650="" id="ada25bd7-530d-075a-64a3-5bf3b6de5a10" fill="#FFFFFF" transform="matrix(3.0999999999999996,0,0,3.0999999999999996,30.805003702640548,166.11070163249968)"><path d="M3.97 6.36C3.18 6.36 2.65 6.74 2.27 7.41L2.10 6.53L0.88 6.53L0.88 13.15L2.29 13.15L2.29 9.70C2.29 8.62 2.86 7.66 3.89 7.66C4.13 7.66 4.35 7.70 4.54 7.79L4.96 6.58C4.78 6.47 4.40 6.36 3.97 6.36ZM12.15 9.70C12.15 7.73 10.82 6.36 8.90 6.36C6.91 6.36 5.48 7.89 5.48 9.84C5.48 11.80 6.90 13.31 9.07 13.31C10.21 13.31 11.17 12.92 11.77 12.25L10.79 11.46C10.37 11.94 9.80 12.19 9.06 12.19C7.82 12.19 7.07 11.33 6.97 10.15L12.15 10.15ZM8.90 7.50C9.93 7.50 10.60 8.12 10.75 9.17L7.03 9.17C7.23 8.17 7.92 7.50 8.90 7.50ZM17.00 6.36C16.07 6.36 15.37 6.75 14.96 7.32L14.79 6.53L13.55 6.53L13.55 13.15L14.96 13.15L14.96 9.11C15.08 7.95 15.87 7.57 16.61 7.57C17.63 7.57 18.07 8.30 18.07 9.38L18.07 13.15L19.48 13.15L19.48 9.06C19.48 7 18.16 6.36 17.00 6.36ZM26.09 3.24L26.09 7.32C25.58 6.72 24.85 6.36 23.90 6.36C22.18 6.36 20.81 7.69 20.81 9.84C20.81 12.00 22.18 13.31 23.90 13.31C24.89 13.31 25.67 12.91 26.18 12.25L26.35 13.15L27.50 13.15L27.50 3.24ZM24.24 12.12C23.04 12.12 22.25 11.14 22.25 9.84C22.25 8.55 23.04 7.55 24.24 7.55C25.48 7.55 26.28 8.55 26.28 9.84C26.28 11.14 25.48 12.12 24.24 12.12ZM35.55 9.70C35.55 7.73 34.23 6.36 32.30 6.36C30.32 6.36 28.89 7.89 28.89 9.84C28.89 11.80 30.30 13.31 32.48 13.31C33.61 13.31 34.58 12.92 35.17 12.25L34.20 11.46C33.77 11.94 33.21 12.19 32.46 12.19C31.22 12.19 30.48 11.33 30.38 10.15L35.55 10.15ZM32.30 7.50C33.34 7.50 34.01 8.12 34.15 9.17L30.44 9.17C30.64 8.17 31.32 7.50 32.30 7.50ZM40.05 6.36C39.26 6.36 38.73 6.74 38.35 7.41L38.18 6.53L36.95 6.53L36.95 13.15L38.37 13.15L38.37 9.70C38.37 8.62 38.94 7.66 39.97 7.66C40.21 7.66 40.42 7.70 40.61 7.79L41.04 6.58C40.86 6.47 40.48 6.36 40.05 6.36ZM45.56 6.36C44.57 6.36 43.81 6.77 43.28 7.42L43.17 6.53L41.93 6.53L41.93 16.22L43.34 16.22L43.34 12.32C43.85 12.94 44.60 13.31 45.56 13.31C47.28 13.31 48.65 12.00 48.65 9.84C48.65 7.69 47.28 6.36 45.56 6.36ZM45.22 12.12C43.98 12.12 43.18 11.14 43.18 9.84C43.18 8.55 43.98 7.55 45.22 7.55C46.42 7.55 47.21 8.55 47.21 9.84C47.21 11.14 46.42 12.12 45.22 12.12ZM53.13 6.36C52.34 6.36 51.81 6.74 51.44 7.41L51.26 6.53L50.04 6.53L50.04 13.15L51.45 13.15L51.45 9.70C51.45 8.62 52.02 7.66 53.05 7.66C53.29 7.66 53.51 7.70 53.70 7.79L54.12 6.58C53.94 6.47 53.56 6.36 53.13 6.36ZM58.20 13.34C60.29 13.34 61.75 11.81 61.75 9.84C61.75 7.89 60.29 6.36 58.20 6.36C56.09 6.36 54.64 7.89 54.64 9.84C54.64 11.81 56.09 13.34 58.20 13.34ZM58.20 12.13C56.98 12.13 56.12 11.14 56.12 9.84C56.12 8.56 56.98 7.57 58.20 7.57C59.41 7.57 60.27 8.56 60.27 9.84C60.27 11.14 59.41 12.13 58.20 12.13ZM69.02 13.15L66.47 9.70L68.75 6.53L67.14 6.53L65.67 8.74L64.18 6.53L62.59 6.53L64.88 9.71L62.33 13.15L63.96 13.15L65.67 10.68L67.38 13.15ZM74.51 6.53L72.55 11.35L70.60 6.53L69.10 6.53L71.85 12.99L70.42 16.22L71.88 16.22L76.02 6.53Z"></path></g> <!----> <g data-v-1084b650="" id="e72c26e0-1be1-3e4a-f4a2-1f1b8662e61c" stroke="none" fill="#FFFFFF" transform="matrix(0.31091464376550126,0,0,0.31091464376550126,106.60961189805002,81.05448049836454)"><svg xmlns="http://www.w3.org/2000/svg" xmlns:xlink="http://www.w3.org/1999/xlink" version="1.0" x="0px" y="0px" viewBox="0 0 100 100" enable-background="new 0 0 100 100" xml:space="preserve"><path d="M66.1955261,33.8072357C47.0261955,21.0886726,55.6949348,8.7212353,55.6949348,8.7212353  c-18.6227531,10.7252636-22.744072,27.0900593-18.18256,47.7793198c-6.7203636-5.4408073-7.6854-11.8849182-7.4740906-20.3190536  c-8.5488892,9.1412735-10.0796356,18.8830948-9.5189171,29.2979965  C21.4095306,81.9958115,35.4491425,95.141983,52.077713,94.9988403  c16.1526566-0.1389313,29.8162842-13.5637512,30.5965805-29.8703613  C83.3332367,51.3958473,77.5346451,41.329525,66.1955261,33.8072357z M52.2815323,85.3143158  c-2.9126282,0-5.6862221-0.5698166-8.2427368-1.5714569c-3.350174-1.3127823-6.3019066-3.3975906-8.6528816-6.0406265  c0.1081505-0.0116425,0.2137566-0.0357742,0.3227882-0.0490799c9.7110939-1.1988602,17.5170708-8.5356293,19.3947296-18.0204391  c0.2836876,1.4293022,0.438427,2.9059753,0.438427,4.4184189c0,4.1113358-1.113121,7.9556732-3.0298805,11.278389  c6.7760506-3.9091187,11.3491058-11.2135468,11.3491058-19.5984955c0-5.6878929-2.1129913-10.8691368-5.5771904-14.8440361  c9.5796471,2.6321678,16.6268501,11.3815498,16.6268501,21.7980652  C74.9107437,75.1823273,64.7787552,85.3143158,52.2815323,85.3143158z"></path></svg></g></svg>