<?xml version="1.0" standalone="no"?>
<!DOCTYPE svg PUBLIC "-//W3C//DTD SVG 20010904//EN"
 "http://www.w3.org/TR/2001/REC-SVG-20010904/DTD/svg10.dtd">
<svg version="1.0" xmlns="http://www.w3.org/2000/svg"
 width="900.000000pt" height="900.000000pt" viewBox="0 0 900.000000 900.000000"
 preserveAspectRatio="xMidYMid meet">
<metadata>
Created by potrace 1.11, written by Peter Selinger 2001-2013
</metadata>
<g transform="translate(0.000000,900.000000) scale(0.100000,-0.100000)"
fill="#000000" stroke="none">
<path d="M0 4500 l0 -4500 4500 0 4500 0 0 4500 0 4500 -4500 0 -4500 0 0
-4500z m4762 3043 c-36 -71 -77 -198 -91 -277 -14 -76 -14 -252 -1 -336 27
-168 115 -369 237 -540 82 -114 273 -310 403 -412 52 -42 165 -124 250 -183
288 -201 486 -376 653 -577 222 -269 383 -589 461 -918 51 -214 61 -314 61
-610 0 -243 -3 -290 -24 -405 -86 -482 -302 -895 -648 -1237 -190 -188 -369
-317 -597 -428 -483 -236 -993 -286 -1520 -150 -773 200 -1411 836 -1611 1606
-59 228 -69 322 -70 674 0 404 20 579 97 855 97 347 292 698 537 965 l50 55 1
-161 c1 -435 74 -727 247 -987 47 -70 213 -251 263 -287 l27 -19 -24 117 c-35
169 -70 417 -84 585 -17 213 -7 625 19 794 91 584 322 1036 733 1438 152 149
254 232 419 345 102 69 230 150 238 150 1 0 -11 -26 -26 -57z"/>
<path d="M4995 5280 c3 -5 37 -51 75 -102 140 -185 250 -447 291 -691 28 -165
23 -438 -11 -597 -89 -418 -340 -787 -694 -1024 -38 -25 -71 -44 -73 -42 -2 1
17 45 41 97 107 225 157 444 158 694 0 83 -6 188 -13 235 l-13 85 -13 -50
c-81 -302 -211 -539 -407 -743 -245 -254 -509 -403 -837 -472 -57 -12 -117
-25 -133 -28 -28 -7 -28 -8 72 -103 329 -316 802 -483 1249 -441 227 22 381
65 578 162 332 163 578 407 744 738 181 359 219 785 106 1177 -119 412 -409
770 -792 977 -117 63 -342 151 -328 128z"/>
</g>
</svg>
